<mxfile host="65bd71144e">
    <diagram id="1NVkvJoWM-H6EmTSBu0q" name="第 1 页">
        <mxGraphModel dx="605" dy="507" grid="1" gridSize="10" guides="1" tooltips="1" connect="1" arrows="1" fold="1" page="1" pageScale="1" pageWidth="827" pageHeight="1169" background="#ffffff" math="0" shadow="0">
            <root>
                <mxCell id="0"/>
                <mxCell id="1" parent="0"/>
                <mxCell id="2" value="调用栈" style="swimlane;childLayout=stackLayout;resizeParent=1;resizeParentMax=0;horizontal=1;startSize=20;horizontalStack=0;html=1;fillColor=#e6d0de;strokeColor=#996185;gradientColor=#d5739d;fontSize=14;fontColor=#000000;" vertex="1" parent="1">
                    <mxGeometry x="80" y="10" width="470" height="320" as="geometry"/>
                </mxCell>
                <mxCell id="4" value="把ajaxControl中的 cleanup 赋值为&lt;span style=&quot;font-size: 12px;&quot;&gt;&amp;nbsp; onInvalidate(() =&amp;gt; expired = true);&lt;/span&gt;" style="swimlane;startSize=480;horizontal=1;html=1;fillColor=#cce5ff;strokeColor=#36393d;fontSize=12;fontColor=#000000;" vertex="1" parent="2">
                    <mxGeometry y="20" width="470" height="60" as="geometry"/>
                </mxCell>
                <mxCell id="5" value="&amp;nbsp; onInvalidate(() =&amp;gt; expired = true);" style="swimlane;startSize=480;horizontal=1;html=1;fillColor=#cce5ff;strokeColor=#36393d;fontSize=12;fontColor=#000000;" vertex="1" parent="2">
                    <mxGeometry y="80" width="470" height="60" as="geometry"/>
                </mxCell>
                <mxCell id="6" value="query (onInvalidate, name, time)" style="swimlane;startSize=480;horizontal=1;html=1;strokeColor=#36393d;fillColor=#cce5ff;fontSize=12;fontColor=#000000;" vertex="1" parent="2">
                    <mxGeometry y="140" width="470" height="60" as="geometry"/>
                </mxCell>
                <mxCell id="7" value="cb(onInvalidate, name, time)" style="swimlane;startSize=480;horizontal=1;html=1;fillColor=#cce5ff;strokeColor=#36393d;fontSize=12;fontColor=#000000;" vertex="1" parent="2">
                    <mxGeometry y="200" width="470" height="60" as="geometry"/>
                </mxCell>
                <mxCell id="8" value="test('A请求', 3000);" style="swimlane;startSize=480;horizontal=1;html=1;fillColor=#cce5ff;strokeColor=#36393d;fontSize=12;fontColor=#000000;" vertex="1" parent="2">
                    <mxGeometry y="260" width="470" height="60" as="geometry"/>
                </mxCell>
            </root>
        </mxGraphModel>
    </diagram>
</mxfile>